G04 EAGLE Gerber RS-274X export*
G75*
%MOMM*%
%FSLAX34Y34*%
%LPD*%
%INSilkscreen Top*%
%IPPOS*%
%AMOC8*
5,1,8,0,0,1.08239X$1,22.5*%
G01*
%ADD10C,0.203200*%
%ADD11C,0.152400*%
%ADD12C,0.254000*%
%ADD13C,0.127000*%


D10*
X97536Y24384D02*
X101036Y8636D01*
X104535Y19135D01*
X108035Y8636D01*
X111534Y24384D01*
X118651Y17385D02*
X123025Y17385D01*
X123025Y17384D02*
X123156Y17382D01*
X123287Y17376D01*
X123417Y17366D01*
X123547Y17353D01*
X123677Y17335D01*
X123806Y17314D01*
X123934Y17288D01*
X124062Y17259D01*
X124189Y17226D01*
X124314Y17190D01*
X124439Y17149D01*
X124562Y17105D01*
X124684Y17057D01*
X124804Y17006D01*
X124923Y16951D01*
X125040Y16892D01*
X125155Y16830D01*
X125268Y16765D01*
X125380Y16696D01*
X125489Y16624D01*
X125596Y16549D01*
X125701Y16470D01*
X125803Y16389D01*
X125903Y16304D01*
X126000Y16216D01*
X126095Y16126D01*
X126187Y16033D01*
X126276Y15937D01*
X126362Y15838D01*
X126445Y15737D01*
X126525Y15634D01*
X126602Y15528D01*
X126675Y15420D01*
X126746Y15309D01*
X126813Y15197D01*
X126877Y15083D01*
X126937Y14967D01*
X126994Y14849D01*
X127047Y14729D01*
X127097Y14608D01*
X127143Y14485D01*
X127185Y14362D01*
X127223Y14237D01*
X127258Y14110D01*
X127289Y13983D01*
X127317Y13855D01*
X127340Y13727D01*
X127359Y13597D01*
X127375Y13467D01*
X127387Y13337D01*
X127395Y13206D01*
X127399Y13075D01*
X127399Y12945D01*
X127395Y12814D01*
X127387Y12683D01*
X127375Y12553D01*
X127359Y12423D01*
X127340Y12293D01*
X127317Y12165D01*
X127289Y12037D01*
X127258Y11910D01*
X127223Y11783D01*
X127185Y11658D01*
X127143Y11535D01*
X127097Y11412D01*
X127047Y11291D01*
X126994Y11171D01*
X126937Y11053D01*
X126877Y10937D01*
X126813Y10823D01*
X126746Y10711D01*
X126675Y10600D01*
X126602Y10492D01*
X126525Y10386D01*
X126445Y10283D01*
X126362Y10182D01*
X126276Y10083D01*
X126187Y9987D01*
X126095Y9894D01*
X126000Y9804D01*
X125903Y9716D01*
X125803Y9631D01*
X125701Y9550D01*
X125596Y9471D01*
X125489Y9396D01*
X125380Y9324D01*
X125268Y9255D01*
X125155Y9190D01*
X125040Y9128D01*
X124923Y9069D01*
X124804Y9014D01*
X124684Y8963D01*
X124562Y8915D01*
X124439Y8871D01*
X124314Y8830D01*
X124189Y8794D01*
X124062Y8761D01*
X123934Y8732D01*
X123806Y8706D01*
X123677Y8685D01*
X123547Y8667D01*
X123417Y8654D01*
X123287Y8644D01*
X123156Y8638D01*
X123025Y8636D01*
X118651Y8636D01*
X118651Y24384D01*
X123025Y24384D01*
X123143Y24382D01*
X123261Y24376D01*
X123379Y24366D01*
X123496Y24352D01*
X123613Y24334D01*
X123730Y24312D01*
X123845Y24287D01*
X123959Y24257D01*
X124073Y24223D01*
X124185Y24186D01*
X124296Y24145D01*
X124405Y24100D01*
X124513Y24052D01*
X124619Y24000D01*
X124724Y23944D01*
X124826Y23885D01*
X124926Y23823D01*
X125024Y23757D01*
X125120Y23688D01*
X125214Y23615D01*
X125305Y23540D01*
X125393Y23461D01*
X125479Y23380D01*
X125562Y23295D01*
X125642Y23208D01*
X125719Y23119D01*
X125793Y23026D01*
X125863Y22932D01*
X125931Y22835D01*
X125995Y22735D01*
X126056Y22634D01*
X126113Y22531D01*
X126167Y22425D01*
X126218Y22318D01*
X126264Y22210D01*
X126307Y22100D01*
X126346Y21988D01*
X126382Y21875D01*
X126413Y21761D01*
X126441Y21646D01*
X126465Y21531D01*
X126485Y21414D01*
X126501Y21297D01*
X126513Y21179D01*
X126521Y21061D01*
X126525Y20943D01*
X126525Y20825D01*
X126521Y20707D01*
X126513Y20589D01*
X126501Y20471D01*
X126485Y20354D01*
X126465Y20237D01*
X126441Y20122D01*
X126413Y20007D01*
X126382Y19893D01*
X126346Y19780D01*
X126307Y19668D01*
X126264Y19558D01*
X126218Y19450D01*
X126167Y19343D01*
X126113Y19237D01*
X126056Y19134D01*
X125995Y19033D01*
X125931Y18933D01*
X125863Y18836D01*
X125793Y18742D01*
X125719Y18649D01*
X125642Y18560D01*
X125562Y18473D01*
X125479Y18388D01*
X125393Y18307D01*
X125305Y18228D01*
X125214Y18153D01*
X125120Y18080D01*
X125024Y18011D01*
X124926Y17945D01*
X124826Y17883D01*
X124724Y17824D01*
X124619Y17768D01*
X124513Y17716D01*
X124405Y17668D01*
X124296Y17623D01*
X124185Y17582D01*
X124073Y17545D01*
X123959Y17511D01*
X123845Y17481D01*
X123730Y17456D01*
X123613Y17434D01*
X123496Y17416D01*
X123379Y17402D01*
X123261Y17392D01*
X123143Y17386D01*
X123025Y17384D01*
X133507Y20884D02*
X137882Y24384D01*
X137882Y8636D01*
X142256Y8636D02*
X133507Y8636D01*
X148386Y8636D02*
X148386Y9511D01*
X149261Y9511D01*
X149261Y8636D01*
X148386Y8636D01*
X155391Y16510D02*
X155395Y16820D01*
X155406Y17129D01*
X155424Y17439D01*
X155450Y17747D01*
X155483Y18055D01*
X155524Y18363D01*
X155572Y18669D01*
X155627Y18974D01*
X155689Y19277D01*
X155759Y19579D01*
X155836Y19879D01*
X155920Y20177D01*
X156011Y20473D01*
X156109Y20767D01*
X156214Y21059D01*
X156326Y21348D01*
X156445Y21634D01*
X156571Y21917D01*
X156703Y22197D01*
X156741Y22302D01*
X156783Y22405D01*
X156828Y22507D01*
X156876Y22608D01*
X156928Y22706D01*
X156984Y22803D01*
X157042Y22898D01*
X157104Y22991D01*
X157169Y23081D01*
X157238Y23169D01*
X157309Y23255D01*
X157383Y23339D01*
X157460Y23419D01*
X157539Y23498D01*
X157622Y23573D01*
X157707Y23645D01*
X157794Y23715D01*
X157884Y23781D01*
X157975Y23844D01*
X158069Y23904D01*
X158165Y23961D01*
X158263Y24015D01*
X158363Y24065D01*
X158464Y24111D01*
X158567Y24154D01*
X158672Y24194D01*
X158777Y24230D01*
X158884Y24262D01*
X158992Y24290D01*
X159101Y24315D01*
X159210Y24336D01*
X159320Y24353D01*
X159431Y24367D01*
X159542Y24376D01*
X159653Y24382D01*
X159765Y24384D01*
X159877Y24382D01*
X159988Y24376D01*
X160099Y24367D01*
X160210Y24353D01*
X160320Y24336D01*
X160430Y24315D01*
X160538Y24290D01*
X160646Y24262D01*
X160753Y24230D01*
X160858Y24194D01*
X160963Y24154D01*
X161066Y24111D01*
X161167Y24065D01*
X161267Y24015D01*
X161365Y23961D01*
X161461Y23904D01*
X161555Y23844D01*
X161646Y23781D01*
X161736Y23715D01*
X161823Y23645D01*
X161908Y23573D01*
X161991Y23498D01*
X162070Y23419D01*
X162147Y23339D01*
X162221Y23255D01*
X162292Y23169D01*
X162361Y23081D01*
X162426Y22991D01*
X162488Y22898D01*
X162546Y22803D01*
X162602Y22706D01*
X162654Y22608D01*
X162702Y22507D01*
X162747Y22405D01*
X162789Y22302D01*
X162827Y22197D01*
X162828Y22197D02*
X162960Y21917D01*
X163086Y21633D01*
X163205Y21347D01*
X163317Y21058D01*
X163422Y20767D01*
X163520Y20473D01*
X163611Y20177D01*
X163695Y19879D01*
X163772Y19579D01*
X163842Y19277D01*
X163904Y18973D01*
X163959Y18669D01*
X164007Y18363D01*
X164048Y18055D01*
X164081Y17747D01*
X164107Y17439D01*
X164125Y17129D01*
X164136Y16820D01*
X164140Y16510D01*
X155391Y16510D02*
X155395Y16200D01*
X155406Y15891D01*
X155424Y15581D01*
X155450Y15273D01*
X155483Y14965D01*
X155524Y14657D01*
X155572Y14351D01*
X155627Y14046D01*
X155689Y13743D01*
X155759Y13441D01*
X155836Y13141D01*
X155920Y12843D01*
X156011Y12547D01*
X156109Y12253D01*
X156214Y11961D01*
X156326Y11672D01*
X156445Y11386D01*
X156571Y11103D01*
X156703Y10823D01*
X156741Y10718D01*
X156783Y10615D01*
X156828Y10513D01*
X156876Y10412D01*
X156928Y10314D01*
X156984Y10217D01*
X157042Y10122D01*
X157104Y10029D01*
X157169Y9939D01*
X157238Y9851D01*
X157309Y9765D01*
X157383Y9681D01*
X157460Y9601D01*
X157539Y9522D01*
X157622Y9447D01*
X157707Y9375D01*
X157794Y9305D01*
X157884Y9239D01*
X157975Y9176D01*
X158069Y9116D01*
X158165Y9059D01*
X158263Y9005D01*
X158363Y8955D01*
X158464Y8909D01*
X158567Y8866D01*
X158672Y8826D01*
X158777Y8790D01*
X158884Y8758D01*
X158992Y8730D01*
X159101Y8705D01*
X159210Y8684D01*
X159320Y8667D01*
X159431Y8653D01*
X159542Y8644D01*
X159653Y8638D01*
X159765Y8636D01*
X162828Y10823D02*
X162960Y11103D01*
X163086Y11386D01*
X163205Y11672D01*
X163317Y11961D01*
X163422Y12253D01*
X163520Y12547D01*
X163611Y12843D01*
X163695Y13141D01*
X163772Y13441D01*
X163842Y13743D01*
X163904Y14046D01*
X163959Y14351D01*
X164007Y14657D01*
X164048Y14965D01*
X164081Y15273D01*
X164107Y15581D01*
X164125Y15891D01*
X164136Y16200D01*
X164140Y16510D01*
X162827Y10823D02*
X162789Y10718D01*
X162747Y10615D01*
X162702Y10513D01*
X162654Y10412D01*
X162602Y10314D01*
X162546Y10217D01*
X162488Y10122D01*
X162426Y10029D01*
X162361Y9939D01*
X162292Y9851D01*
X162221Y9765D01*
X162147Y9681D01*
X162070Y9601D01*
X161991Y9522D01*
X161908Y9447D01*
X161823Y9375D01*
X161736Y9305D01*
X161646Y9239D01*
X161555Y9176D01*
X161461Y9116D01*
X161365Y9059D01*
X161267Y9005D01*
X161167Y8955D01*
X161066Y8909D01*
X160963Y8866D01*
X160858Y8826D01*
X160753Y8790D01*
X160646Y8758D01*
X160538Y8730D01*
X160429Y8705D01*
X160320Y8684D01*
X160210Y8667D01*
X160099Y8653D01*
X159988Y8644D01*
X159877Y8638D01*
X159765Y8636D01*
X156266Y12136D02*
X163265Y20884D01*
D11*
X74930Y104902D02*
X71120Y104902D01*
X74930Y104902D02*
X74930Y101092D01*
X74930Y104902D02*
X78740Y104902D01*
X74930Y104902D02*
X74930Y108712D01*
X63500Y92202D02*
X63508Y92888D01*
X63534Y93573D01*
X63576Y94257D01*
X63635Y94941D01*
X63710Y95622D01*
X63802Y96302D01*
X63911Y96979D01*
X64037Y97653D01*
X64179Y98324D01*
X64337Y98991D01*
X64512Y99654D01*
X64703Y100313D01*
X64910Y100966D01*
X65133Y101615D01*
X65372Y102257D01*
X65627Y102894D01*
X65897Y103524D01*
X66183Y104148D01*
X66483Y104764D01*
X66799Y105373D01*
X67130Y105974D01*
X67475Y106566D01*
X67835Y107150D01*
X68209Y107725D01*
X68597Y108290D01*
X68998Y108846D01*
X69414Y109392D01*
X69842Y109927D01*
X70284Y110452D01*
X70738Y110965D01*
X71205Y111468D01*
X71683Y111959D01*
X72174Y112437D01*
X72677Y112904D01*
X73190Y113358D01*
X73715Y113800D01*
X74250Y114228D01*
X74796Y114644D01*
X75352Y115045D01*
X75917Y115433D01*
X76492Y115807D01*
X77076Y116167D01*
X77668Y116512D01*
X78269Y116843D01*
X78878Y117159D01*
X79494Y117459D01*
X80118Y117745D01*
X80748Y118015D01*
X81385Y118270D01*
X82027Y118509D01*
X82676Y118732D01*
X83329Y118939D01*
X83988Y119130D01*
X84651Y119305D01*
X85318Y119463D01*
X85989Y119605D01*
X86663Y119731D01*
X87340Y119840D01*
X88020Y119932D01*
X88701Y120007D01*
X89385Y120066D01*
X90069Y120108D01*
X90754Y120134D01*
X91440Y120142D01*
X92126Y120134D01*
X92811Y120108D01*
X93495Y120066D01*
X94179Y120007D01*
X94860Y119932D01*
X95540Y119840D01*
X96217Y119731D01*
X96891Y119605D01*
X97562Y119463D01*
X98229Y119305D01*
X98892Y119130D01*
X99551Y118939D01*
X100204Y118732D01*
X100853Y118509D01*
X101495Y118270D01*
X102132Y118015D01*
X102762Y117745D01*
X103386Y117459D01*
X104002Y117159D01*
X104611Y116843D01*
X105212Y116512D01*
X105804Y116167D01*
X106388Y115807D01*
X106963Y115433D01*
X107528Y115045D01*
X108084Y114644D01*
X108630Y114228D01*
X109165Y113800D01*
X109690Y113358D01*
X110203Y112904D01*
X110706Y112437D01*
X111197Y111959D01*
X111675Y111468D01*
X112142Y110965D01*
X112596Y110452D01*
X113038Y109927D01*
X113466Y109392D01*
X113882Y108846D01*
X114283Y108290D01*
X114671Y107725D01*
X115045Y107150D01*
X115405Y106566D01*
X115750Y105974D01*
X116081Y105373D01*
X116397Y104764D01*
X116697Y104148D01*
X116983Y103524D01*
X117253Y102894D01*
X117508Y102257D01*
X117747Y101615D01*
X117970Y100966D01*
X118177Y100313D01*
X118368Y99654D01*
X118543Y98991D01*
X118701Y98324D01*
X118843Y97653D01*
X118969Y96979D01*
X119078Y96302D01*
X119170Y95622D01*
X119245Y94941D01*
X119304Y94257D01*
X119346Y93573D01*
X119372Y92888D01*
X119380Y92202D01*
X119372Y91516D01*
X119346Y90831D01*
X119304Y90147D01*
X119245Y89463D01*
X119170Y88782D01*
X119078Y88102D01*
X118969Y87425D01*
X118843Y86751D01*
X118701Y86080D01*
X118543Y85413D01*
X118368Y84750D01*
X118177Y84091D01*
X117970Y83438D01*
X117747Y82789D01*
X117508Y82147D01*
X117253Y81510D01*
X116983Y80880D01*
X116697Y80256D01*
X116397Y79640D01*
X116081Y79031D01*
X115750Y78430D01*
X115405Y77838D01*
X115045Y77254D01*
X114671Y76679D01*
X114283Y76114D01*
X113882Y75558D01*
X113466Y75012D01*
X113038Y74477D01*
X112596Y73952D01*
X112142Y73439D01*
X111675Y72936D01*
X111197Y72445D01*
X110706Y71967D01*
X110203Y71500D01*
X109690Y71046D01*
X109165Y70604D01*
X108630Y70176D01*
X108084Y69760D01*
X107528Y69359D01*
X106963Y68971D01*
X106388Y68597D01*
X105804Y68237D01*
X105212Y67892D01*
X104611Y67561D01*
X104002Y67245D01*
X103386Y66945D01*
X102762Y66659D01*
X102132Y66389D01*
X101495Y66134D01*
X100853Y65895D01*
X100204Y65672D01*
X99551Y65465D01*
X98892Y65274D01*
X98229Y65099D01*
X97562Y64941D01*
X96891Y64799D01*
X96217Y64673D01*
X95540Y64564D01*
X94860Y64472D01*
X94179Y64397D01*
X93495Y64338D01*
X92811Y64296D01*
X92126Y64270D01*
X91440Y64262D01*
X90754Y64270D01*
X90069Y64296D01*
X89385Y64338D01*
X88701Y64397D01*
X88020Y64472D01*
X87340Y64564D01*
X86663Y64673D01*
X85989Y64799D01*
X85318Y64941D01*
X84651Y65099D01*
X83988Y65274D01*
X83329Y65465D01*
X82676Y65672D01*
X82027Y65895D01*
X81385Y66134D01*
X80748Y66389D01*
X80118Y66659D01*
X79494Y66945D01*
X78878Y67245D01*
X78269Y67561D01*
X77668Y67892D01*
X77076Y68237D01*
X76492Y68597D01*
X75917Y68971D01*
X75352Y69359D01*
X74796Y69760D01*
X74250Y70176D01*
X73715Y70604D01*
X73190Y71046D01*
X72677Y71500D01*
X72174Y71967D01*
X71683Y72445D01*
X71205Y72936D01*
X70738Y73439D01*
X70284Y73952D01*
X69842Y74477D01*
X69414Y75012D01*
X68998Y75558D01*
X68597Y76114D01*
X68209Y76679D01*
X67835Y77254D01*
X67475Y77838D01*
X67130Y78430D01*
X66799Y79031D01*
X66483Y79640D01*
X66183Y80256D01*
X65897Y80880D01*
X65627Y81510D01*
X65372Y82147D01*
X65133Y82789D01*
X64910Y83438D01*
X64703Y84091D01*
X64512Y84750D01*
X64337Y85413D01*
X64179Y86080D01*
X64037Y86751D01*
X63911Y87425D01*
X63802Y88102D01*
X63710Y88782D01*
X63635Y89463D01*
X63576Y90147D01*
X63534Y90831D01*
X63508Y91516D01*
X63500Y92202D01*
X72306Y48260D02*
X74790Y48260D01*
X72306Y48260D02*
X72208Y48262D01*
X72111Y48268D01*
X72014Y48277D01*
X71917Y48291D01*
X71821Y48308D01*
X71726Y48329D01*
X71632Y48353D01*
X71538Y48382D01*
X71446Y48414D01*
X71355Y48449D01*
X71266Y48488D01*
X71178Y48531D01*
X71092Y48577D01*
X71008Y48626D01*
X70926Y48679D01*
X70846Y48734D01*
X70768Y48793D01*
X70693Y48855D01*
X70620Y48920D01*
X70550Y48988D01*
X70482Y49058D01*
X70417Y49131D01*
X70355Y49206D01*
X70296Y49284D01*
X70241Y49364D01*
X70188Y49446D01*
X70139Y49530D01*
X70093Y49616D01*
X70050Y49704D01*
X70011Y49793D01*
X69976Y49884D01*
X69944Y49976D01*
X69915Y50070D01*
X69891Y50164D01*
X69870Y50259D01*
X69853Y50355D01*
X69839Y50452D01*
X69830Y50549D01*
X69824Y50646D01*
X69822Y50744D01*
X69823Y50744D02*
X69823Y56952D01*
X69822Y56952D02*
X69824Y57050D01*
X69830Y57147D01*
X69839Y57244D01*
X69853Y57341D01*
X69870Y57437D01*
X69891Y57532D01*
X69915Y57626D01*
X69944Y57720D01*
X69976Y57812D01*
X70011Y57903D01*
X70050Y57992D01*
X70093Y58080D01*
X70139Y58166D01*
X70188Y58250D01*
X70241Y58332D01*
X70296Y58412D01*
X70355Y58490D01*
X70417Y58565D01*
X70482Y58638D01*
X70550Y58708D01*
X70620Y58776D01*
X70693Y58841D01*
X70768Y58903D01*
X70846Y58962D01*
X70926Y59017D01*
X71008Y59070D01*
X71092Y59119D01*
X71178Y59165D01*
X71266Y59208D01*
X71355Y59247D01*
X71446Y59282D01*
X71538Y59314D01*
X71632Y59343D01*
X71726Y59367D01*
X71821Y59388D01*
X71917Y59405D01*
X72014Y59419D01*
X72111Y59428D01*
X72208Y59434D01*
X72306Y59436D01*
X74790Y59436D01*
X79389Y56952D02*
X82494Y59436D01*
X82494Y48260D01*
X85598Y48260D02*
X79389Y48260D01*
X175768Y80010D02*
X179578Y80010D01*
X175768Y80010D02*
X175768Y83820D01*
X175768Y80010D02*
X171958Y80010D01*
X175768Y80010D02*
X175768Y76200D01*
X131318Y92710D02*
X131326Y93396D01*
X131352Y94081D01*
X131394Y94765D01*
X131453Y95449D01*
X131528Y96130D01*
X131620Y96810D01*
X131729Y97487D01*
X131855Y98161D01*
X131997Y98832D01*
X132155Y99499D01*
X132330Y100162D01*
X132521Y100821D01*
X132728Y101474D01*
X132951Y102123D01*
X133190Y102765D01*
X133445Y103402D01*
X133715Y104032D01*
X134001Y104656D01*
X134301Y105272D01*
X134617Y105881D01*
X134948Y106482D01*
X135293Y107074D01*
X135653Y107658D01*
X136027Y108233D01*
X136415Y108798D01*
X136816Y109354D01*
X137232Y109900D01*
X137660Y110435D01*
X138102Y110960D01*
X138556Y111473D01*
X139023Y111976D01*
X139501Y112467D01*
X139992Y112945D01*
X140495Y113412D01*
X141008Y113866D01*
X141533Y114308D01*
X142068Y114736D01*
X142614Y115152D01*
X143170Y115553D01*
X143735Y115941D01*
X144310Y116315D01*
X144894Y116675D01*
X145486Y117020D01*
X146087Y117351D01*
X146696Y117667D01*
X147312Y117967D01*
X147936Y118253D01*
X148566Y118523D01*
X149203Y118778D01*
X149845Y119017D01*
X150494Y119240D01*
X151147Y119447D01*
X151806Y119638D01*
X152469Y119813D01*
X153136Y119971D01*
X153807Y120113D01*
X154481Y120239D01*
X155158Y120348D01*
X155838Y120440D01*
X156519Y120515D01*
X157203Y120574D01*
X157887Y120616D01*
X158572Y120642D01*
X159258Y120650D01*
X159944Y120642D01*
X160629Y120616D01*
X161313Y120574D01*
X161997Y120515D01*
X162678Y120440D01*
X163358Y120348D01*
X164035Y120239D01*
X164709Y120113D01*
X165380Y119971D01*
X166047Y119813D01*
X166710Y119638D01*
X167369Y119447D01*
X168022Y119240D01*
X168671Y119017D01*
X169313Y118778D01*
X169950Y118523D01*
X170580Y118253D01*
X171204Y117967D01*
X171820Y117667D01*
X172429Y117351D01*
X173030Y117020D01*
X173622Y116675D01*
X174206Y116315D01*
X174781Y115941D01*
X175346Y115553D01*
X175902Y115152D01*
X176448Y114736D01*
X176983Y114308D01*
X177508Y113866D01*
X178021Y113412D01*
X178524Y112945D01*
X179015Y112467D01*
X179493Y111976D01*
X179960Y111473D01*
X180414Y110960D01*
X180856Y110435D01*
X181284Y109900D01*
X181700Y109354D01*
X182101Y108798D01*
X182489Y108233D01*
X182863Y107658D01*
X183223Y107074D01*
X183568Y106482D01*
X183899Y105881D01*
X184215Y105272D01*
X184515Y104656D01*
X184801Y104032D01*
X185071Y103402D01*
X185326Y102765D01*
X185565Y102123D01*
X185788Y101474D01*
X185995Y100821D01*
X186186Y100162D01*
X186361Y99499D01*
X186519Y98832D01*
X186661Y98161D01*
X186787Y97487D01*
X186896Y96810D01*
X186988Y96130D01*
X187063Y95449D01*
X187122Y94765D01*
X187164Y94081D01*
X187190Y93396D01*
X187198Y92710D01*
X187190Y92024D01*
X187164Y91339D01*
X187122Y90655D01*
X187063Y89971D01*
X186988Y89290D01*
X186896Y88610D01*
X186787Y87933D01*
X186661Y87259D01*
X186519Y86588D01*
X186361Y85921D01*
X186186Y85258D01*
X185995Y84599D01*
X185788Y83946D01*
X185565Y83297D01*
X185326Y82655D01*
X185071Y82018D01*
X184801Y81388D01*
X184515Y80764D01*
X184215Y80148D01*
X183899Y79539D01*
X183568Y78938D01*
X183223Y78346D01*
X182863Y77762D01*
X182489Y77187D01*
X182101Y76622D01*
X181700Y76066D01*
X181284Y75520D01*
X180856Y74985D01*
X180414Y74460D01*
X179960Y73947D01*
X179493Y73444D01*
X179015Y72953D01*
X178524Y72475D01*
X178021Y72008D01*
X177508Y71554D01*
X176983Y71112D01*
X176448Y70684D01*
X175902Y70268D01*
X175346Y69867D01*
X174781Y69479D01*
X174206Y69105D01*
X173622Y68745D01*
X173030Y68400D01*
X172429Y68069D01*
X171820Y67753D01*
X171204Y67453D01*
X170580Y67167D01*
X169950Y66897D01*
X169313Y66642D01*
X168671Y66403D01*
X168022Y66180D01*
X167369Y65973D01*
X166710Y65782D01*
X166047Y65607D01*
X165380Y65449D01*
X164709Y65307D01*
X164035Y65181D01*
X163358Y65072D01*
X162678Y64980D01*
X161997Y64905D01*
X161313Y64846D01*
X160629Y64804D01*
X159944Y64778D01*
X159258Y64770D01*
X158572Y64778D01*
X157887Y64804D01*
X157203Y64846D01*
X156519Y64905D01*
X155838Y64980D01*
X155158Y65072D01*
X154481Y65181D01*
X153807Y65307D01*
X153136Y65449D01*
X152469Y65607D01*
X151806Y65782D01*
X151147Y65973D01*
X150494Y66180D01*
X149845Y66403D01*
X149203Y66642D01*
X148566Y66897D01*
X147936Y67167D01*
X147312Y67453D01*
X146696Y67753D01*
X146087Y68069D01*
X145486Y68400D01*
X144894Y68745D01*
X144310Y69105D01*
X143735Y69479D01*
X143170Y69867D01*
X142614Y70268D01*
X142068Y70684D01*
X141533Y71112D01*
X141008Y71554D01*
X140495Y72008D01*
X139992Y72475D01*
X139501Y72953D01*
X139023Y73444D01*
X138556Y73947D01*
X138102Y74460D01*
X137660Y74985D01*
X137232Y75520D01*
X136816Y76066D01*
X136415Y76622D01*
X136027Y77187D01*
X135653Y77762D01*
X135293Y78346D01*
X134948Y78938D01*
X134617Y79539D01*
X134301Y80148D01*
X134001Y80764D01*
X133715Y81388D01*
X133445Y82018D01*
X133190Y82655D01*
X132951Y83297D01*
X132728Y83946D01*
X132521Y84599D01*
X132330Y85258D01*
X132155Y85921D01*
X131997Y86588D01*
X131855Y87259D01*
X131729Y87933D01*
X131620Y88610D01*
X131528Y89290D01*
X131453Y89971D01*
X131394Y90655D01*
X131352Y91339D01*
X131326Y92024D01*
X131318Y92710D01*
X156408Y50292D02*
X158891Y50292D01*
X156408Y50292D02*
X156310Y50294D01*
X156213Y50300D01*
X156116Y50309D01*
X156019Y50323D01*
X155923Y50340D01*
X155828Y50361D01*
X155734Y50385D01*
X155640Y50414D01*
X155548Y50446D01*
X155457Y50481D01*
X155368Y50520D01*
X155280Y50563D01*
X155194Y50609D01*
X155110Y50658D01*
X155028Y50711D01*
X154948Y50766D01*
X154870Y50825D01*
X154795Y50887D01*
X154722Y50952D01*
X154652Y51020D01*
X154584Y51090D01*
X154519Y51163D01*
X154457Y51238D01*
X154398Y51316D01*
X154343Y51396D01*
X154290Y51478D01*
X154241Y51562D01*
X154195Y51648D01*
X154152Y51736D01*
X154113Y51825D01*
X154078Y51916D01*
X154046Y52008D01*
X154017Y52102D01*
X153993Y52196D01*
X153972Y52291D01*
X153955Y52387D01*
X153941Y52484D01*
X153932Y52581D01*
X153926Y52678D01*
X153924Y52776D01*
X153924Y58984D01*
X153926Y59082D01*
X153932Y59179D01*
X153941Y59276D01*
X153955Y59373D01*
X153972Y59469D01*
X153993Y59564D01*
X154017Y59658D01*
X154046Y59752D01*
X154078Y59844D01*
X154113Y59935D01*
X154152Y60024D01*
X154195Y60112D01*
X154241Y60198D01*
X154290Y60282D01*
X154343Y60364D01*
X154398Y60444D01*
X154457Y60522D01*
X154519Y60597D01*
X154584Y60670D01*
X154652Y60740D01*
X154722Y60808D01*
X154795Y60873D01*
X154870Y60935D01*
X154948Y60994D01*
X155028Y61049D01*
X155110Y61102D01*
X155194Y61151D01*
X155280Y61197D01*
X155368Y61240D01*
X155457Y61279D01*
X155548Y61314D01*
X155640Y61346D01*
X155734Y61375D01*
X155828Y61399D01*
X155923Y61420D01*
X156019Y61437D01*
X156116Y61451D01*
X156213Y61460D01*
X156310Y61466D01*
X156408Y61468D01*
X158891Y61468D01*
X166905Y61468D02*
X167009Y61466D01*
X167114Y61460D01*
X167218Y61450D01*
X167321Y61437D01*
X167424Y61419D01*
X167527Y61398D01*
X167628Y61373D01*
X167729Y61344D01*
X167828Y61311D01*
X167926Y61275D01*
X168022Y61235D01*
X168117Y61191D01*
X168211Y61144D01*
X168302Y61094D01*
X168391Y61040D01*
X168479Y60983D01*
X168564Y60922D01*
X168647Y60858D01*
X168727Y60792D01*
X168805Y60722D01*
X168881Y60650D01*
X168953Y60574D01*
X169023Y60496D01*
X169089Y60416D01*
X169153Y60333D01*
X169214Y60248D01*
X169271Y60160D01*
X169325Y60071D01*
X169375Y59980D01*
X169422Y59886D01*
X169466Y59791D01*
X169506Y59695D01*
X169542Y59597D01*
X169575Y59498D01*
X169604Y59397D01*
X169629Y59296D01*
X169650Y59193D01*
X169668Y59090D01*
X169681Y58987D01*
X169691Y58883D01*
X169697Y58778D01*
X169699Y58674D01*
X166905Y61469D02*
X166786Y61467D01*
X166668Y61461D01*
X166549Y61451D01*
X166431Y61438D01*
X166314Y61420D01*
X166197Y61398D01*
X166081Y61373D01*
X165966Y61344D01*
X165851Y61311D01*
X165738Y61274D01*
X165627Y61234D01*
X165516Y61190D01*
X165408Y61142D01*
X165301Y61091D01*
X165195Y61036D01*
X165092Y60977D01*
X164990Y60916D01*
X164891Y60851D01*
X164793Y60782D01*
X164699Y60711D01*
X164606Y60636D01*
X164516Y60559D01*
X164429Y60478D01*
X164344Y60395D01*
X164262Y60309D01*
X164183Y60220D01*
X164107Y60129D01*
X164034Y60035D01*
X163965Y59939D01*
X163898Y59840D01*
X163835Y59740D01*
X163775Y59637D01*
X163718Y59533D01*
X163666Y59426D01*
X163616Y59318D01*
X163570Y59209D01*
X163528Y59097D01*
X163490Y58985D01*
X168768Y56501D02*
X168843Y56575D01*
X168915Y56652D01*
X168985Y56731D01*
X169052Y56813D01*
X169116Y56897D01*
X169177Y56983D01*
X169235Y57071D01*
X169290Y57162D01*
X169342Y57254D01*
X169390Y57348D01*
X169435Y57443D01*
X169477Y57541D01*
X169515Y57639D01*
X169550Y57739D01*
X169581Y57840D01*
X169608Y57942D01*
X169632Y58045D01*
X169653Y58148D01*
X169669Y58253D01*
X169682Y58358D01*
X169692Y58463D01*
X169697Y58568D01*
X169699Y58674D01*
X168768Y56501D02*
X163491Y50292D01*
X169699Y50292D01*
D10*
X25654Y125476D02*
X25654Y163576D01*
D12*
X26128Y164192D01*
X26617Y164797D01*
X27121Y165389D01*
X27639Y165969D01*
X28171Y166536D01*
X28717Y167090D01*
X29276Y167630D01*
X29849Y168156D01*
X30434Y168669D01*
X31031Y169166D01*
X31640Y169649D01*
X32261Y170117D01*
X32894Y170570D01*
X33537Y171007D01*
X34191Y171428D01*
X34855Y171832D01*
X35528Y172221D01*
X36211Y172593D01*
X36903Y172948D01*
X37603Y173286D01*
X38311Y173607D01*
X39027Y173910D01*
X39751Y174196D01*
X40480Y174464D01*
X41217Y174714D01*
X41959Y174945D01*
X42707Y175159D01*
X43459Y175354D01*
X44217Y175531D01*
X44978Y175689D01*
X45743Y175829D01*
X46511Y175949D01*
X47282Y176051D01*
X48055Y176134D01*
X48830Y176198D01*
X49606Y176243D01*
X50383Y176269D01*
X51161Y176276D01*
X51938Y176264D01*
X52715Y176233D01*
X53491Y176182D01*
X54266Y176113D01*
X55038Y176025D01*
X55808Y175918D01*
X56576Y175792D01*
X57340Y175648D01*
X58100Y175484D01*
X58856Y175302D01*
X59607Y175102D01*
X60354Y174884D01*
X61094Y174647D01*
X61829Y174392D01*
X62557Y174119D01*
X63278Y173828D01*
X63992Y173520D01*
X64698Y173195D01*
X65396Y172852D01*
X66086Y172492D01*
X66766Y172116D01*
X67437Y171723D01*
X68098Y171313D01*
X68749Y170888D01*
X69389Y170447D01*
X70018Y169990D01*
X70636Y169518D01*
X71242Y169031D01*
X71836Y168529D01*
X72418Y168013D01*
X72987Y167483D01*
X73542Y166939D01*
X74085Y166381D01*
X74613Y165811D01*
X75127Y165228D01*
X75627Y164632D01*
X76112Y164024D01*
X76582Y163405D01*
X77036Y162774D01*
X77475Y162132D01*
X77899Y161480D01*
X78306Y160817D01*
X78697Y160145D01*
X79071Y159463D01*
X79428Y158773D01*
X79768Y158074D01*
X80092Y157366D01*
X80397Y156652D01*
X80686Y155929D01*
X80956Y155200D01*
X81208Y154465D01*
X81443Y153723D01*
X81659Y152976D01*
X81857Y152224D01*
X82036Y151468D01*
X82197Y150707D01*
X82339Y149943D01*
X82462Y149175D01*
X82566Y148404D01*
X82652Y147631D01*
X82718Y146857D01*
X82766Y146081D01*
X82794Y145304D01*
X82804Y144526D01*
X82794Y143748D01*
X82766Y142971D01*
X82718Y142195D01*
X82652Y141421D01*
X82566Y140648D01*
X82462Y139877D01*
X82339Y139109D01*
X82197Y138345D01*
X82036Y137584D01*
X81857Y136828D01*
X81659Y136076D01*
X81443Y135329D01*
X81208Y134587D01*
X80956Y133852D01*
X80686Y133123D01*
X80397Y132400D01*
X80092Y131686D01*
X79768Y130978D01*
X79428Y130279D01*
X79071Y129589D01*
X78697Y128907D01*
X78306Y128235D01*
X77899Y127572D01*
X77475Y126920D01*
X77036Y126278D01*
X76582Y125647D01*
X76112Y125028D01*
X75627Y124420D01*
X75127Y123824D01*
X74613Y123241D01*
X74085Y122671D01*
X73542Y122113D01*
X72987Y121569D01*
X72418Y121039D01*
X71836Y120523D01*
X71242Y120021D01*
X70636Y119534D01*
X70018Y119062D01*
X69389Y118605D01*
X68749Y118164D01*
X68098Y117739D01*
X67437Y117329D01*
X66766Y116936D01*
X66086Y116560D01*
X65396Y116200D01*
X64698Y115857D01*
X63992Y115532D01*
X63278Y115224D01*
X62557Y114933D01*
X61829Y114660D01*
X61094Y114405D01*
X60354Y114168D01*
X59607Y113950D01*
X58856Y113750D01*
X58100Y113568D01*
X57340Y113404D01*
X56576Y113260D01*
X55808Y113134D01*
X55038Y113027D01*
X54266Y112939D01*
X53491Y112870D01*
X52715Y112819D01*
X51938Y112788D01*
X51161Y112776D01*
X50383Y112783D01*
X49606Y112809D01*
X48830Y112854D01*
X48055Y112918D01*
X47282Y113001D01*
X46511Y113103D01*
X45743Y113223D01*
X44978Y113363D01*
X44217Y113521D01*
X43459Y113698D01*
X42707Y113893D01*
X41959Y114107D01*
X41217Y114338D01*
X40480Y114588D01*
X39751Y114856D01*
X39027Y115142D01*
X38311Y115445D01*
X37603Y115766D01*
X36903Y116104D01*
X36211Y116459D01*
X35528Y116831D01*
X34855Y117220D01*
X34191Y117624D01*
X33537Y118045D01*
X32894Y118482D01*
X32261Y118935D01*
X31640Y119403D01*
X31031Y119886D01*
X30434Y120383D01*
X29849Y120896D01*
X29276Y121422D01*
X28717Y121962D01*
X28171Y122516D01*
X27639Y123083D01*
X27121Y123663D01*
X26617Y124255D01*
X26128Y124860D01*
X25654Y125476D01*
D11*
X25654Y144526D02*
X25662Y145149D01*
X25685Y145772D01*
X25723Y146395D01*
X25776Y147016D01*
X25845Y147635D01*
X25929Y148253D01*
X26028Y148868D01*
X26142Y149481D01*
X26271Y150091D01*
X26415Y150698D01*
X26574Y151301D01*
X26748Y151899D01*
X26936Y152494D01*
X27139Y153083D01*
X27356Y153667D01*
X27587Y154246D01*
X27833Y154819D01*
X28093Y155386D01*
X28366Y155946D01*
X28653Y156499D01*
X28954Y157046D01*
X29268Y157584D01*
X29595Y158115D01*
X29935Y158637D01*
X30287Y159152D01*
X30653Y159657D01*
X31030Y160153D01*
X31420Y160640D01*
X31821Y161117D01*
X32234Y161584D01*
X32658Y162040D01*
X33093Y162487D01*
X33540Y162922D01*
X33996Y163346D01*
X34463Y163759D01*
X34940Y164160D01*
X35427Y164550D01*
X35923Y164927D01*
X36428Y165293D01*
X36943Y165645D01*
X37465Y165985D01*
X37996Y166312D01*
X38534Y166626D01*
X39081Y166927D01*
X39634Y167214D01*
X40194Y167487D01*
X40761Y167747D01*
X41334Y167993D01*
X41913Y168224D01*
X42497Y168441D01*
X43086Y168644D01*
X43681Y168832D01*
X44279Y169006D01*
X44882Y169165D01*
X45489Y169309D01*
X46099Y169438D01*
X46712Y169552D01*
X47327Y169651D01*
X47945Y169735D01*
X48564Y169804D01*
X49185Y169857D01*
X49808Y169895D01*
X50431Y169918D01*
X51054Y169926D01*
X51677Y169918D01*
X52300Y169895D01*
X52923Y169857D01*
X53544Y169804D01*
X54163Y169735D01*
X54781Y169651D01*
X55396Y169552D01*
X56009Y169438D01*
X56619Y169309D01*
X57226Y169165D01*
X57829Y169006D01*
X58427Y168832D01*
X59022Y168644D01*
X59611Y168441D01*
X60195Y168224D01*
X60774Y167993D01*
X61347Y167747D01*
X61914Y167487D01*
X62474Y167214D01*
X63027Y166927D01*
X63574Y166626D01*
X64112Y166312D01*
X64643Y165985D01*
X65165Y165645D01*
X65680Y165293D01*
X66185Y164927D01*
X66681Y164550D01*
X67168Y164160D01*
X67645Y163759D01*
X68112Y163346D01*
X68568Y162922D01*
X69015Y162487D01*
X69450Y162040D01*
X69874Y161584D01*
X70287Y161117D01*
X70688Y160640D01*
X71078Y160153D01*
X71455Y159657D01*
X71821Y159152D01*
X72173Y158637D01*
X72513Y158115D01*
X72840Y157584D01*
X73154Y157046D01*
X73455Y156499D01*
X73742Y155946D01*
X74015Y155386D01*
X74275Y154819D01*
X74521Y154246D01*
X74752Y153667D01*
X74969Y153083D01*
X75172Y152494D01*
X75360Y151899D01*
X75534Y151301D01*
X75693Y150698D01*
X75837Y150091D01*
X75966Y149481D01*
X76080Y148868D01*
X76179Y148253D01*
X76263Y147635D01*
X76332Y147016D01*
X76385Y146395D01*
X76423Y145772D01*
X76446Y145149D01*
X76454Y144526D01*
X76446Y143903D01*
X76423Y143280D01*
X76385Y142657D01*
X76332Y142036D01*
X76263Y141417D01*
X76179Y140799D01*
X76080Y140184D01*
X75966Y139571D01*
X75837Y138961D01*
X75693Y138354D01*
X75534Y137751D01*
X75360Y137153D01*
X75172Y136558D01*
X74969Y135969D01*
X74752Y135385D01*
X74521Y134806D01*
X74275Y134233D01*
X74015Y133666D01*
X73742Y133106D01*
X73455Y132553D01*
X73154Y132006D01*
X72840Y131468D01*
X72513Y130937D01*
X72173Y130415D01*
X71821Y129900D01*
X71455Y129395D01*
X71078Y128899D01*
X70688Y128412D01*
X70287Y127935D01*
X69874Y127468D01*
X69450Y127012D01*
X69015Y126565D01*
X68568Y126130D01*
X68112Y125706D01*
X67645Y125293D01*
X67168Y124892D01*
X66681Y124502D01*
X66185Y124125D01*
X65680Y123759D01*
X65165Y123407D01*
X64643Y123067D01*
X64112Y122740D01*
X63574Y122426D01*
X63027Y122125D01*
X62474Y121838D01*
X61914Y121565D01*
X61347Y121305D01*
X60774Y121059D01*
X60195Y120828D01*
X59611Y120611D01*
X59022Y120408D01*
X58427Y120220D01*
X57829Y120046D01*
X57226Y119887D01*
X56619Y119743D01*
X56009Y119614D01*
X55396Y119500D01*
X54781Y119401D01*
X54163Y119317D01*
X53544Y119248D01*
X52923Y119195D01*
X52300Y119157D01*
X51677Y119134D01*
X51054Y119126D01*
X50431Y119134D01*
X49808Y119157D01*
X49185Y119195D01*
X48564Y119248D01*
X47945Y119317D01*
X47327Y119401D01*
X46712Y119500D01*
X46099Y119614D01*
X45489Y119743D01*
X44882Y119887D01*
X44279Y120046D01*
X43681Y120220D01*
X43086Y120408D01*
X42497Y120611D01*
X41913Y120828D01*
X41334Y121059D01*
X40761Y121305D01*
X40194Y121565D01*
X39634Y121838D01*
X39081Y122125D01*
X38534Y122426D01*
X37996Y122740D01*
X37465Y123067D01*
X36943Y123407D01*
X36428Y123759D01*
X35923Y124125D01*
X35427Y124502D01*
X34940Y124892D01*
X34463Y125293D01*
X33996Y125706D01*
X33540Y126130D01*
X33093Y126565D01*
X32658Y127012D01*
X32234Y127468D01*
X31821Y127935D01*
X31420Y128412D01*
X31030Y128899D01*
X30653Y129395D01*
X30287Y129900D01*
X29935Y130415D01*
X29595Y130937D01*
X29268Y131468D01*
X28954Y132006D01*
X28653Y132553D01*
X28366Y133106D01*
X28093Y133666D01*
X27833Y134233D01*
X27587Y134806D01*
X27356Y135385D01*
X27139Y135969D01*
X26936Y136558D01*
X26748Y137153D01*
X26574Y137751D01*
X26415Y138354D01*
X26271Y138961D01*
X26142Y139571D01*
X26028Y140184D01*
X25929Y140799D01*
X25845Y141417D01*
X25776Y142036D01*
X25723Y142657D01*
X25685Y143280D01*
X25662Y143903D01*
X25654Y144526D01*
X17526Y130598D02*
X6350Y130598D01*
X17526Y130598D02*
X17526Y135566D01*
X17526Y140504D02*
X17526Y145471D01*
X17526Y140504D02*
X6350Y140504D01*
X6350Y145471D01*
X11317Y144230D02*
X11317Y140504D01*
X6350Y150382D02*
X17526Y150382D01*
X6350Y150382D02*
X6350Y153487D01*
X6352Y153595D01*
X6358Y153704D01*
X6367Y153811D01*
X6380Y153919D01*
X6397Y154026D01*
X6418Y154132D01*
X6442Y154238D01*
X6470Y154343D01*
X6502Y154446D01*
X6537Y154549D01*
X6576Y154650D01*
X6618Y154750D01*
X6664Y154848D01*
X6713Y154944D01*
X6766Y155039D01*
X6822Y155132D01*
X6881Y155223D01*
X6943Y155311D01*
X7008Y155398D01*
X7076Y155482D01*
X7147Y155564D01*
X7221Y155643D01*
X7298Y155720D01*
X7377Y155794D01*
X7459Y155865D01*
X7543Y155933D01*
X7630Y155998D01*
X7718Y156060D01*
X7809Y156119D01*
X7902Y156175D01*
X7997Y156228D01*
X8093Y156277D01*
X8192Y156323D01*
X8291Y156365D01*
X8392Y156404D01*
X8495Y156439D01*
X8598Y156471D01*
X8703Y156499D01*
X8809Y156523D01*
X8915Y156544D01*
X9022Y156561D01*
X9130Y156574D01*
X9238Y156583D01*
X9346Y156589D01*
X9454Y156591D01*
X14422Y156591D01*
X14533Y156589D01*
X14643Y156583D01*
X14754Y156573D01*
X14864Y156559D01*
X14973Y156542D01*
X15082Y156520D01*
X15190Y156495D01*
X15296Y156465D01*
X15402Y156432D01*
X15507Y156395D01*
X15610Y156355D01*
X15711Y156310D01*
X15811Y156263D01*
X15910Y156211D01*
X16006Y156156D01*
X16100Y156098D01*
X16192Y156037D01*
X16282Y155972D01*
X16370Y155904D01*
X16455Y155833D01*
X16537Y155759D01*
X16617Y155682D01*
X16694Y155602D01*
X16768Y155520D01*
X16839Y155435D01*
X16907Y155347D01*
X16972Y155257D01*
X17033Y155165D01*
X17091Y155071D01*
X17146Y154975D01*
X17198Y154876D01*
X17245Y154776D01*
X17290Y154675D01*
X17330Y154572D01*
X17367Y154467D01*
X17400Y154361D01*
X17430Y154255D01*
X17455Y154147D01*
X17477Y154038D01*
X17494Y153929D01*
X17508Y153819D01*
X17518Y153708D01*
X17524Y153598D01*
X17526Y153487D01*
X17526Y150382D01*
X8834Y162193D02*
X6350Y165298D01*
X17526Y165298D01*
X17526Y168402D02*
X17526Y162193D01*
D10*
X229870Y163322D02*
X229870Y125222D01*
D12*
X229396Y124606D01*
X228907Y124001D01*
X228403Y123409D01*
X227885Y122829D01*
X227353Y122262D01*
X226807Y121708D01*
X226248Y121168D01*
X225675Y120642D01*
X225090Y120129D01*
X224493Y119632D01*
X223884Y119149D01*
X223263Y118681D01*
X222630Y118228D01*
X221987Y117791D01*
X221333Y117370D01*
X220669Y116966D01*
X219996Y116577D01*
X219313Y116205D01*
X218621Y115850D01*
X217921Y115512D01*
X217213Y115191D01*
X216497Y114888D01*
X215773Y114602D01*
X215044Y114334D01*
X214307Y114084D01*
X213565Y113853D01*
X212817Y113639D01*
X212065Y113444D01*
X211307Y113267D01*
X210546Y113109D01*
X209781Y112969D01*
X209013Y112849D01*
X208242Y112747D01*
X207469Y112664D01*
X206694Y112600D01*
X205918Y112555D01*
X205141Y112529D01*
X204363Y112522D01*
X203586Y112534D01*
X202809Y112565D01*
X202033Y112616D01*
X201258Y112685D01*
X200486Y112773D01*
X199716Y112880D01*
X198948Y113006D01*
X198184Y113150D01*
X197424Y113314D01*
X196668Y113496D01*
X195917Y113696D01*
X195170Y113914D01*
X194430Y114151D01*
X193695Y114406D01*
X192967Y114679D01*
X192246Y114970D01*
X191532Y115278D01*
X190826Y115603D01*
X190128Y115946D01*
X189438Y116306D01*
X188758Y116682D01*
X188087Y117075D01*
X187426Y117485D01*
X186775Y117910D01*
X186135Y118351D01*
X185506Y118808D01*
X184888Y119280D01*
X184282Y119767D01*
X183688Y120269D01*
X183106Y120785D01*
X182537Y121315D01*
X181982Y121859D01*
X181439Y122417D01*
X180911Y122987D01*
X180397Y123570D01*
X179897Y124166D01*
X179412Y124774D01*
X178942Y125393D01*
X178488Y126024D01*
X178049Y126666D01*
X177625Y127318D01*
X177218Y127981D01*
X176827Y128653D01*
X176453Y129335D01*
X176096Y130025D01*
X175756Y130724D01*
X175432Y131432D01*
X175127Y132146D01*
X174838Y132869D01*
X174568Y133598D01*
X174316Y134333D01*
X174081Y135075D01*
X173865Y135822D01*
X173667Y136574D01*
X173488Y137330D01*
X173327Y138091D01*
X173185Y138855D01*
X173062Y139623D01*
X172958Y140394D01*
X172872Y141167D01*
X172806Y141941D01*
X172758Y142717D01*
X172730Y143494D01*
X172720Y144272D01*
X172730Y145050D01*
X172758Y145827D01*
X172806Y146603D01*
X172872Y147377D01*
X172958Y148150D01*
X173062Y148921D01*
X173185Y149689D01*
X173327Y150453D01*
X173488Y151214D01*
X173667Y151970D01*
X173865Y152722D01*
X174081Y153469D01*
X174316Y154211D01*
X174568Y154946D01*
X174838Y155675D01*
X175127Y156398D01*
X175432Y157112D01*
X175756Y157820D01*
X176096Y158519D01*
X176453Y159209D01*
X176827Y159891D01*
X177218Y160563D01*
X177625Y161226D01*
X178049Y161878D01*
X178488Y162520D01*
X178942Y163151D01*
X179412Y163770D01*
X179897Y164378D01*
X180397Y164974D01*
X180911Y165557D01*
X181439Y166127D01*
X181982Y166685D01*
X182537Y167229D01*
X183106Y167759D01*
X183688Y168275D01*
X184282Y168777D01*
X184888Y169264D01*
X185506Y169736D01*
X186135Y170193D01*
X186775Y170634D01*
X187426Y171059D01*
X188087Y171469D01*
X188758Y171862D01*
X189438Y172238D01*
X190128Y172598D01*
X190826Y172941D01*
X191532Y173266D01*
X192246Y173574D01*
X192967Y173865D01*
X193695Y174138D01*
X194430Y174393D01*
X195170Y174630D01*
X195917Y174848D01*
X196668Y175048D01*
X197424Y175230D01*
X198184Y175394D01*
X198948Y175538D01*
X199716Y175664D01*
X200486Y175771D01*
X201258Y175859D01*
X202033Y175928D01*
X202809Y175979D01*
X203586Y176010D01*
X204363Y176022D01*
X205141Y176015D01*
X205918Y175989D01*
X206694Y175944D01*
X207469Y175880D01*
X208242Y175797D01*
X209013Y175695D01*
X209781Y175575D01*
X210546Y175435D01*
X211307Y175277D01*
X212065Y175100D01*
X212817Y174905D01*
X213565Y174691D01*
X214307Y174460D01*
X215044Y174210D01*
X215773Y173942D01*
X216497Y173656D01*
X217213Y173353D01*
X217921Y173032D01*
X218621Y172694D01*
X219313Y172339D01*
X219996Y171967D01*
X220669Y171578D01*
X221333Y171174D01*
X221987Y170753D01*
X222630Y170316D01*
X223263Y169863D01*
X223884Y169395D01*
X224493Y168912D01*
X225090Y168415D01*
X225675Y167902D01*
X226248Y167376D01*
X226807Y166836D01*
X227353Y166282D01*
X227885Y165715D01*
X228403Y165135D01*
X228907Y164543D01*
X229396Y163938D01*
X229870Y163322D01*
D11*
X179070Y144272D02*
X179078Y144895D01*
X179101Y145518D01*
X179139Y146141D01*
X179192Y146762D01*
X179261Y147381D01*
X179345Y147999D01*
X179444Y148614D01*
X179558Y149227D01*
X179687Y149837D01*
X179831Y150444D01*
X179990Y151047D01*
X180164Y151645D01*
X180352Y152240D01*
X180555Y152829D01*
X180772Y153413D01*
X181003Y153992D01*
X181249Y154565D01*
X181509Y155132D01*
X181782Y155692D01*
X182069Y156245D01*
X182370Y156792D01*
X182684Y157330D01*
X183011Y157861D01*
X183351Y158383D01*
X183703Y158898D01*
X184069Y159403D01*
X184446Y159899D01*
X184836Y160386D01*
X185237Y160863D01*
X185650Y161330D01*
X186074Y161786D01*
X186509Y162233D01*
X186956Y162668D01*
X187412Y163092D01*
X187879Y163505D01*
X188356Y163906D01*
X188843Y164296D01*
X189339Y164673D01*
X189844Y165039D01*
X190359Y165391D01*
X190881Y165731D01*
X191412Y166058D01*
X191950Y166372D01*
X192497Y166673D01*
X193050Y166960D01*
X193610Y167233D01*
X194177Y167493D01*
X194750Y167739D01*
X195329Y167970D01*
X195913Y168187D01*
X196502Y168390D01*
X197097Y168578D01*
X197695Y168752D01*
X198298Y168911D01*
X198905Y169055D01*
X199515Y169184D01*
X200128Y169298D01*
X200743Y169397D01*
X201361Y169481D01*
X201980Y169550D01*
X202601Y169603D01*
X203224Y169641D01*
X203847Y169664D01*
X204470Y169672D01*
X205093Y169664D01*
X205716Y169641D01*
X206339Y169603D01*
X206960Y169550D01*
X207579Y169481D01*
X208197Y169397D01*
X208812Y169298D01*
X209425Y169184D01*
X210035Y169055D01*
X210642Y168911D01*
X211245Y168752D01*
X211843Y168578D01*
X212438Y168390D01*
X213027Y168187D01*
X213611Y167970D01*
X214190Y167739D01*
X214763Y167493D01*
X215330Y167233D01*
X215890Y166960D01*
X216443Y166673D01*
X216990Y166372D01*
X217528Y166058D01*
X218059Y165731D01*
X218581Y165391D01*
X219096Y165039D01*
X219601Y164673D01*
X220097Y164296D01*
X220584Y163906D01*
X221061Y163505D01*
X221528Y163092D01*
X221984Y162668D01*
X222431Y162233D01*
X222866Y161786D01*
X223290Y161330D01*
X223703Y160863D01*
X224104Y160386D01*
X224494Y159899D01*
X224871Y159403D01*
X225237Y158898D01*
X225589Y158383D01*
X225929Y157861D01*
X226256Y157330D01*
X226570Y156792D01*
X226871Y156245D01*
X227158Y155692D01*
X227431Y155132D01*
X227691Y154565D01*
X227937Y153992D01*
X228168Y153413D01*
X228385Y152829D01*
X228588Y152240D01*
X228776Y151645D01*
X228950Y151047D01*
X229109Y150444D01*
X229253Y149837D01*
X229382Y149227D01*
X229496Y148614D01*
X229595Y147999D01*
X229679Y147381D01*
X229748Y146762D01*
X229801Y146141D01*
X229839Y145518D01*
X229862Y144895D01*
X229870Y144272D01*
X229862Y143649D01*
X229839Y143026D01*
X229801Y142403D01*
X229748Y141782D01*
X229679Y141163D01*
X229595Y140545D01*
X229496Y139930D01*
X229382Y139317D01*
X229253Y138707D01*
X229109Y138100D01*
X228950Y137497D01*
X228776Y136899D01*
X228588Y136304D01*
X228385Y135715D01*
X228168Y135131D01*
X227937Y134552D01*
X227691Y133979D01*
X227431Y133412D01*
X227158Y132852D01*
X226871Y132299D01*
X226570Y131752D01*
X226256Y131214D01*
X225929Y130683D01*
X225589Y130161D01*
X225237Y129646D01*
X224871Y129141D01*
X224494Y128645D01*
X224104Y128158D01*
X223703Y127681D01*
X223290Y127214D01*
X222866Y126758D01*
X222431Y126311D01*
X221984Y125876D01*
X221528Y125452D01*
X221061Y125039D01*
X220584Y124638D01*
X220097Y124248D01*
X219601Y123871D01*
X219096Y123505D01*
X218581Y123153D01*
X218059Y122813D01*
X217528Y122486D01*
X216990Y122172D01*
X216443Y121871D01*
X215890Y121584D01*
X215330Y121311D01*
X214763Y121051D01*
X214190Y120805D01*
X213611Y120574D01*
X213027Y120357D01*
X212438Y120154D01*
X211843Y119966D01*
X211245Y119792D01*
X210642Y119633D01*
X210035Y119489D01*
X209425Y119360D01*
X208812Y119246D01*
X208197Y119147D01*
X207579Y119063D01*
X206960Y118994D01*
X206339Y118941D01*
X205716Y118903D01*
X205093Y118880D01*
X204470Y118872D01*
X203847Y118880D01*
X203224Y118903D01*
X202601Y118941D01*
X201980Y118994D01*
X201361Y119063D01*
X200743Y119147D01*
X200128Y119246D01*
X199515Y119360D01*
X198905Y119489D01*
X198298Y119633D01*
X197695Y119792D01*
X197097Y119966D01*
X196502Y120154D01*
X195913Y120357D01*
X195329Y120574D01*
X194750Y120805D01*
X194177Y121051D01*
X193610Y121311D01*
X193050Y121584D01*
X192497Y121871D01*
X191950Y122172D01*
X191412Y122486D01*
X190881Y122813D01*
X190359Y123153D01*
X189844Y123505D01*
X189339Y123871D01*
X188843Y124248D01*
X188356Y124638D01*
X187879Y125039D01*
X187412Y125452D01*
X186956Y125876D01*
X186509Y126311D01*
X186074Y126758D01*
X185650Y127214D01*
X185237Y127681D01*
X184836Y128158D01*
X184446Y128645D01*
X184069Y129141D01*
X183703Y129646D01*
X183351Y130161D01*
X183011Y130683D01*
X182684Y131214D01*
X182370Y131752D01*
X182069Y132299D01*
X181782Y132852D01*
X181509Y133412D01*
X181249Y133979D01*
X181003Y134552D01*
X180772Y135131D01*
X180555Y135715D01*
X180352Y136304D01*
X180164Y136899D01*
X179990Y137497D01*
X179831Y138100D01*
X179687Y138707D01*
X179558Y139317D01*
X179444Y139930D01*
X179345Y140545D01*
X179261Y141163D01*
X179192Y141782D01*
X179139Y142403D01*
X179101Y143026D01*
X179078Y143649D01*
X179070Y144272D01*
X234188Y129074D02*
X245364Y129074D01*
X245364Y134042D01*
X245364Y138980D02*
X245364Y143947D01*
X245364Y138980D02*
X234188Y138980D01*
X234188Y143947D01*
X239155Y142706D02*
X239155Y138980D01*
X234188Y148858D02*
X245364Y148858D01*
X234188Y148858D02*
X234188Y151963D01*
X234190Y152071D01*
X234196Y152180D01*
X234205Y152287D01*
X234218Y152395D01*
X234235Y152502D01*
X234256Y152608D01*
X234280Y152714D01*
X234308Y152819D01*
X234340Y152922D01*
X234375Y153025D01*
X234414Y153126D01*
X234456Y153226D01*
X234502Y153324D01*
X234551Y153420D01*
X234604Y153515D01*
X234660Y153608D01*
X234719Y153699D01*
X234781Y153787D01*
X234846Y153874D01*
X234914Y153958D01*
X234985Y154040D01*
X235059Y154119D01*
X235136Y154196D01*
X235215Y154270D01*
X235297Y154341D01*
X235381Y154409D01*
X235468Y154474D01*
X235556Y154536D01*
X235647Y154595D01*
X235740Y154651D01*
X235835Y154704D01*
X235931Y154753D01*
X236030Y154799D01*
X236129Y154841D01*
X236230Y154880D01*
X236333Y154915D01*
X236436Y154947D01*
X236541Y154975D01*
X236647Y154999D01*
X236753Y155020D01*
X236860Y155037D01*
X236968Y155050D01*
X237076Y155059D01*
X237184Y155065D01*
X237292Y155067D01*
X242260Y155067D01*
X242371Y155065D01*
X242481Y155059D01*
X242592Y155049D01*
X242702Y155035D01*
X242811Y155018D01*
X242920Y154996D01*
X243028Y154971D01*
X243134Y154941D01*
X243240Y154908D01*
X243345Y154871D01*
X243448Y154831D01*
X243549Y154786D01*
X243649Y154739D01*
X243748Y154687D01*
X243844Y154632D01*
X243938Y154574D01*
X244030Y154513D01*
X244120Y154448D01*
X244208Y154380D01*
X244293Y154309D01*
X244375Y154235D01*
X244455Y154158D01*
X244532Y154078D01*
X244606Y153996D01*
X244677Y153911D01*
X244745Y153823D01*
X244810Y153733D01*
X244871Y153641D01*
X244929Y153547D01*
X244984Y153451D01*
X245036Y153352D01*
X245083Y153252D01*
X245128Y153151D01*
X245168Y153048D01*
X245205Y152943D01*
X245238Y152837D01*
X245268Y152731D01*
X245293Y152623D01*
X245315Y152514D01*
X245332Y152405D01*
X245346Y152295D01*
X245356Y152184D01*
X245362Y152074D01*
X245364Y151963D01*
X245364Y148858D01*
X234188Y164084D02*
X234190Y164188D01*
X234196Y164293D01*
X234206Y164397D01*
X234219Y164500D01*
X234237Y164603D01*
X234258Y164706D01*
X234283Y164807D01*
X234312Y164908D01*
X234345Y165007D01*
X234381Y165105D01*
X234421Y165201D01*
X234465Y165296D01*
X234512Y165390D01*
X234562Y165481D01*
X234616Y165570D01*
X234673Y165658D01*
X234734Y165743D01*
X234798Y165826D01*
X234864Y165906D01*
X234934Y165984D01*
X235006Y166060D01*
X235082Y166132D01*
X235160Y166202D01*
X235240Y166268D01*
X235323Y166332D01*
X235408Y166393D01*
X235496Y166450D01*
X235585Y166504D01*
X235676Y166554D01*
X235770Y166601D01*
X235865Y166645D01*
X235961Y166685D01*
X236059Y166721D01*
X236158Y166754D01*
X236259Y166783D01*
X236360Y166808D01*
X236463Y166829D01*
X236566Y166847D01*
X236669Y166860D01*
X236773Y166870D01*
X236878Y166876D01*
X236982Y166878D01*
X234188Y164084D02*
X234190Y163965D01*
X234196Y163847D01*
X234206Y163728D01*
X234219Y163610D01*
X234237Y163493D01*
X234259Y163376D01*
X234284Y163260D01*
X234313Y163145D01*
X234346Y163030D01*
X234383Y162917D01*
X234423Y162806D01*
X234467Y162695D01*
X234515Y162587D01*
X234566Y162480D01*
X234621Y162374D01*
X234680Y162271D01*
X234741Y162169D01*
X234806Y162070D01*
X234875Y161972D01*
X234946Y161878D01*
X235021Y161785D01*
X235098Y161695D01*
X235179Y161608D01*
X235262Y161523D01*
X235348Y161441D01*
X235437Y161362D01*
X235528Y161286D01*
X235622Y161213D01*
X235718Y161144D01*
X235817Y161077D01*
X235917Y161014D01*
X236020Y160954D01*
X236124Y160897D01*
X236231Y160845D01*
X236339Y160795D01*
X236448Y160749D01*
X236560Y160707D01*
X236672Y160669D01*
X239155Y165947D02*
X239081Y166022D01*
X239004Y166094D01*
X238925Y166164D01*
X238843Y166231D01*
X238759Y166295D01*
X238673Y166356D01*
X238585Y166414D01*
X238494Y166469D01*
X238402Y166521D01*
X238308Y166569D01*
X238213Y166614D01*
X238115Y166656D01*
X238017Y166694D01*
X237917Y166729D01*
X237816Y166760D01*
X237714Y166787D01*
X237611Y166811D01*
X237508Y166832D01*
X237403Y166848D01*
X237298Y166861D01*
X237193Y166871D01*
X237088Y166876D01*
X236982Y166878D01*
X239155Y165947D02*
X245364Y160669D01*
X245364Y166878D01*
X76962Y191241D02*
X65786Y191241D01*
X65786Y194346D01*
X65788Y194457D01*
X65794Y194567D01*
X65804Y194678D01*
X65818Y194788D01*
X65835Y194897D01*
X65857Y195006D01*
X65882Y195114D01*
X65912Y195220D01*
X65945Y195326D01*
X65982Y195431D01*
X66022Y195534D01*
X66067Y195635D01*
X66114Y195735D01*
X66166Y195834D01*
X66221Y195930D01*
X66279Y196024D01*
X66340Y196116D01*
X66405Y196206D01*
X66473Y196294D01*
X66544Y196379D01*
X66618Y196461D01*
X66695Y196541D01*
X66775Y196618D01*
X66857Y196692D01*
X66942Y196763D01*
X67030Y196831D01*
X67120Y196896D01*
X67212Y196957D01*
X67306Y197015D01*
X67402Y197070D01*
X67501Y197122D01*
X67601Y197169D01*
X67702Y197214D01*
X67805Y197254D01*
X67910Y197291D01*
X68016Y197324D01*
X68122Y197354D01*
X68230Y197379D01*
X68339Y197401D01*
X68448Y197418D01*
X68558Y197432D01*
X68669Y197442D01*
X68779Y197448D01*
X68890Y197450D01*
X69001Y197448D01*
X69111Y197442D01*
X69222Y197432D01*
X69332Y197418D01*
X69441Y197401D01*
X69550Y197379D01*
X69658Y197354D01*
X69764Y197324D01*
X69870Y197291D01*
X69975Y197254D01*
X70078Y197214D01*
X70179Y197169D01*
X70279Y197122D01*
X70378Y197070D01*
X70474Y197015D01*
X70568Y196957D01*
X70660Y196896D01*
X70750Y196831D01*
X70838Y196763D01*
X70923Y196692D01*
X71005Y196618D01*
X71085Y196541D01*
X71162Y196461D01*
X71236Y196379D01*
X71307Y196294D01*
X71375Y196206D01*
X71440Y196116D01*
X71501Y196024D01*
X71559Y195930D01*
X71614Y195834D01*
X71666Y195735D01*
X71713Y195635D01*
X71758Y195534D01*
X71798Y195431D01*
X71835Y195326D01*
X71868Y195220D01*
X71898Y195114D01*
X71923Y195006D01*
X71945Y194897D01*
X71962Y194788D01*
X71976Y194678D01*
X71986Y194567D01*
X71992Y194457D01*
X71994Y194346D01*
X71995Y194346D02*
X71995Y191241D01*
X71995Y194966D02*
X76962Y197450D01*
X68270Y202579D02*
X65786Y205684D01*
X76962Y205684D01*
X76962Y208788D02*
X76962Y202579D01*
X88392Y148823D02*
X99568Y148823D01*
X88392Y148823D02*
X88392Y151928D01*
X88394Y152039D01*
X88400Y152149D01*
X88410Y152260D01*
X88424Y152370D01*
X88441Y152479D01*
X88463Y152588D01*
X88488Y152696D01*
X88518Y152802D01*
X88551Y152908D01*
X88588Y153013D01*
X88628Y153116D01*
X88673Y153217D01*
X88720Y153317D01*
X88772Y153416D01*
X88827Y153512D01*
X88885Y153606D01*
X88946Y153698D01*
X89011Y153788D01*
X89079Y153876D01*
X89150Y153961D01*
X89224Y154043D01*
X89301Y154123D01*
X89381Y154200D01*
X89463Y154274D01*
X89548Y154345D01*
X89636Y154413D01*
X89726Y154478D01*
X89818Y154539D01*
X89912Y154597D01*
X90008Y154652D01*
X90107Y154704D01*
X90207Y154751D01*
X90308Y154796D01*
X90411Y154836D01*
X90516Y154873D01*
X90622Y154906D01*
X90728Y154936D01*
X90836Y154961D01*
X90945Y154983D01*
X91054Y155000D01*
X91164Y155014D01*
X91275Y155024D01*
X91385Y155030D01*
X91496Y155032D01*
X91607Y155030D01*
X91717Y155024D01*
X91828Y155014D01*
X91938Y155000D01*
X92047Y154983D01*
X92156Y154961D01*
X92264Y154936D01*
X92370Y154906D01*
X92476Y154873D01*
X92581Y154836D01*
X92684Y154796D01*
X92785Y154751D01*
X92885Y154704D01*
X92984Y154652D01*
X93080Y154597D01*
X93174Y154539D01*
X93266Y154478D01*
X93356Y154413D01*
X93444Y154345D01*
X93529Y154274D01*
X93611Y154200D01*
X93691Y154123D01*
X93768Y154043D01*
X93842Y153961D01*
X93913Y153876D01*
X93981Y153788D01*
X94046Y153698D01*
X94107Y153606D01*
X94165Y153512D01*
X94220Y153416D01*
X94272Y153317D01*
X94319Y153217D01*
X94364Y153116D01*
X94404Y153013D01*
X94441Y152908D01*
X94474Y152802D01*
X94504Y152696D01*
X94529Y152588D01*
X94551Y152479D01*
X94568Y152370D01*
X94582Y152260D01*
X94592Y152149D01*
X94598Y152039D01*
X94600Y151928D01*
X94601Y151928D02*
X94601Y148823D01*
X94601Y152548D02*
X99568Y155032D01*
X88392Y163576D02*
X88394Y163680D01*
X88400Y163785D01*
X88410Y163889D01*
X88423Y163992D01*
X88441Y164095D01*
X88462Y164198D01*
X88487Y164299D01*
X88516Y164400D01*
X88549Y164499D01*
X88585Y164597D01*
X88625Y164693D01*
X88669Y164788D01*
X88716Y164882D01*
X88766Y164973D01*
X88820Y165062D01*
X88877Y165150D01*
X88938Y165235D01*
X89002Y165318D01*
X89068Y165398D01*
X89138Y165476D01*
X89210Y165552D01*
X89286Y165624D01*
X89364Y165694D01*
X89444Y165760D01*
X89527Y165824D01*
X89612Y165885D01*
X89700Y165942D01*
X89789Y165996D01*
X89880Y166046D01*
X89974Y166093D01*
X90069Y166137D01*
X90165Y166177D01*
X90263Y166213D01*
X90362Y166246D01*
X90463Y166275D01*
X90564Y166300D01*
X90667Y166321D01*
X90770Y166339D01*
X90873Y166352D01*
X90977Y166362D01*
X91082Y166368D01*
X91186Y166370D01*
X88392Y163576D02*
X88394Y163457D01*
X88400Y163339D01*
X88410Y163220D01*
X88423Y163102D01*
X88441Y162985D01*
X88463Y162868D01*
X88488Y162752D01*
X88517Y162637D01*
X88550Y162522D01*
X88587Y162409D01*
X88627Y162298D01*
X88671Y162187D01*
X88719Y162079D01*
X88770Y161972D01*
X88825Y161866D01*
X88884Y161763D01*
X88945Y161661D01*
X89010Y161562D01*
X89079Y161464D01*
X89150Y161370D01*
X89225Y161277D01*
X89302Y161187D01*
X89383Y161100D01*
X89466Y161015D01*
X89552Y160933D01*
X89641Y160854D01*
X89732Y160778D01*
X89826Y160705D01*
X89922Y160636D01*
X90021Y160569D01*
X90121Y160506D01*
X90224Y160446D01*
X90328Y160389D01*
X90435Y160337D01*
X90543Y160287D01*
X90652Y160241D01*
X90764Y160199D01*
X90876Y160161D01*
X93359Y165439D02*
X93285Y165514D01*
X93208Y165586D01*
X93129Y165656D01*
X93047Y165723D01*
X92963Y165787D01*
X92877Y165848D01*
X92789Y165906D01*
X92698Y165961D01*
X92606Y166013D01*
X92512Y166061D01*
X92417Y166106D01*
X92319Y166148D01*
X92221Y166186D01*
X92121Y166221D01*
X92020Y166252D01*
X91918Y166279D01*
X91815Y166303D01*
X91712Y166324D01*
X91607Y166340D01*
X91502Y166353D01*
X91397Y166363D01*
X91292Y166368D01*
X91186Y166370D01*
X93359Y165439D02*
X99568Y160161D01*
X99568Y166370D01*
X155194Y141457D02*
X166370Y141457D01*
X155194Y141457D02*
X155194Y144562D01*
X155196Y144673D01*
X155202Y144783D01*
X155212Y144894D01*
X155226Y145004D01*
X155243Y145113D01*
X155265Y145222D01*
X155290Y145330D01*
X155320Y145436D01*
X155353Y145542D01*
X155390Y145647D01*
X155430Y145750D01*
X155475Y145851D01*
X155522Y145951D01*
X155574Y146050D01*
X155629Y146146D01*
X155687Y146240D01*
X155748Y146332D01*
X155813Y146422D01*
X155881Y146510D01*
X155952Y146595D01*
X156026Y146677D01*
X156103Y146757D01*
X156183Y146834D01*
X156265Y146908D01*
X156350Y146979D01*
X156438Y147047D01*
X156528Y147112D01*
X156620Y147173D01*
X156714Y147231D01*
X156810Y147286D01*
X156909Y147338D01*
X157009Y147385D01*
X157110Y147430D01*
X157213Y147470D01*
X157318Y147507D01*
X157424Y147540D01*
X157530Y147570D01*
X157638Y147595D01*
X157747Y147617D01*
X157856Y147634D01*
X157966Y147648D01*
X158077Y147658D01*
X158187Y147664D01*
X158298Y147666D01*
X158409Y147664D01*
X158519Y147658D01*
X158630Y147648D01*
X158740Y147634D01*
X158849Y147617D01*
X158958Y147595D01*
X159066Y147570D01*
X159172Y147540D01*
X159278Y147507D01*
X159383Y147470D01*
X159486Y147430D01*
X159587Y147385D01*
X159687Y147338D01*
X159786Y147286D01*
X159882Y147231D01*
X159976Y147173D01*
X160068Y147112D01*
X160158Y147047D01*
X160246Y146979D01*
X160331Y146908D01*
X160413Y146834D01*
X160493Y146757D01*
X160570Y146677D01*
X160644Y146595D01*
X160715Y146510D01*
X160783Y146422D01*
X160848Y146332D01*
X160909Y146240D01*
X160967Y146146D01*
X161022Y146050D01*
X161074Y145951D01*
X161121Y145851D01*
X161166Y145750D01*
X161206Y145647D01*
X161243Y145542D01*
X161276Y145436D01*
X161306Y145330D01*
X161331Y145222D01*
X161353Y145113D01*
X161370Y145004D01*
X161384Y144894D01*
X161394Y144783D01*
X161400Y144673D01*
X161402Y144562D01*
X161403Y144562D02*
X161403Y141457D01*
X161403Y145182D02*
X166370Y147666D01*
X166370Y152795D02*
X166370Y155900D01*
X166368Y156011D01*
X166362Y156121D01*
X166352Y156232D01*
X166338Y156342D01*
X166321Y156451D01*
X166299Y156560D01*
X166274Y156668D01*
X166244Y156774D01*
X166211Y156880D01*
X166174Y156985D01*
X166134Y157088D01*
X166089Y157189D01*
X166042Y157289D01*
X165990Y157388D01*
X165935Y157484D01*
X165877Y157578D01*
X165816Y157670D01*
X165751Y157760D01*
X165683Y157848D01*
X165612Y157933D01*
X165538Y158015D01*
X165461Y158095D01*
X165381Y158172D01*
X165299Y158246D01*
X165214Y158317D01*
X165126Y158385D01*
X165036Y158450D01*
X164944Y158511D01*
X164850Y158569D01*
X164754Y158624D01*
X164655Y158676D01*
X164555Y158723D01*
X164454Y158768D01*
X164351Y158808D01*
X164246Y158845D01*
X164140Y158878D01*
X164034Y158908D01*
X163926Y158933D01*
X163817Y158955D01*
X163708Y158972D01*
X163598Y158986D01*
X163487Y158996D01*
X163377Y159002D01*
X163266Y159004D01*
X163155Y159002D01*
X163045Y158996D01*
X162934Y158986D01*
X162824Y158972D01*
X162715Y158955D01*
X162606Y158933D01*
X162498Y158908D01*
X162392Y158878D01*
X162286Y158845D01*
X162181Y158808D01*
X162078Y158768D01*
X161977Y158723D01*
X161877Y158676D01*
X161778Y158624D01*
X161682Y158569D01*
X161588Y158511D01*
X161496Y158450D01*
X161406Y158385D01*
X161318Y158317D01*
X161233Y158246D01*
X161151Y158172D01*
X161071Y158095D01*
X160994Y158015D01*
X160920Y157933D01*
X160849Y157848D01*
X160781Y157760D01*
X160716Y157670D01*
X160655Y157578D01*
X160597Y157484D01*
X160542Y157388D01*
X160490Y157289D01*
X160443Y157189D01*
X160398Y157088D01*
X160358Y156985D01*
X160321Y156880D01*
X160288Y156774D01*
X160258Y156668D01*
X160233Y156560D01*
X160211Y156451D01*
X160194Y156342D01*
X160180Y156232D01*
X160170Y156121D01*
X160164Y156011D01*
X160162Y155900D01*
X155194Y156520D02*
X155194Y152795D01*
X155194Y156520D02*
X155196Y156619D01*
X155202Y156717D01*
X155212Y156816D01*
X155225Y156913D01*
X155243Y157011D01*
X155264Y157107D01*
X155290Y157203D01*
X155319Y157297D01*
X155351Y157390D01*
X155388Y157482D01*
X155428Y157572D01*
X155472Y157661D01*
X155519Y157748D01*
X155569Y157833D01*
X155623Y157915D01*
X155680Y157996D01*
X155740Y158074D01*
X155804Y158150D01*
X155870Y158223D01*
X155939Y158294D01*
X156011Y158362D01*
X156086Y158426D01*
X156163Y158488D01*
X156242Y158547D01*
X156324Y158602D01*
X156408Y158655D01*
X156493Y158703D01*
X156581Y158749D01*
X156671Y158791D01*
X156762Y158829D01*
X156854Y158863D01*
X156948Y158894D01*
X157043Y158921D01*
X157139Y158945D01*
X157236Y158964D01*
X157333Y158980D01*
X157431Y158992D01*
X157530Y159000D01*
X157629Y159004D01*
X157727Y159004D01*
X157826Y159000D01*
X157925Y158992D01*
X158023Y158980D01*
X158120Y158964D01*
X158217Y158945D01*
X158313Y158921D01*
X158408Y158894D01*
X158502Y158863D01*
X158594Y158829D01*
X158685Y158791D01*
X158775Y158749D01*
X158863Y158703D01*
X158948Y158655D01*
X159032Y158602D01*
X159114Y158547D01*
X159193Y158488D01*
X159270Y158426D01*
X159345Y158362D01*
X159417Y158294D01*
X159486Y158223D01*
X159552Y158150D01*
X159616Y158074D01*
X159676Y157996D01*
X159733Y157915D01*
X159787Y157833D01*
X159837Y157748D01*
X159884Y157661D01*
X159928Y157572D01*
X159968Y157482D01*
X160005Y157390D01*
X160037Y157297D01*
X160066Y157203D01*
X160092Y157107D01*
X160113Y157011D01*
X160131Y156913D01*
X160144Y156816D01*
X160154Y156717D01*
X160160Y156619D01*
X160162Y156520D01*
X160161Y156520D02*
X160161Y154037D01*
X214122Y192257D02*
X225298Y192257D01*
X214122Y192257D02*
X214122Y195362D01*
X214124Y195473D01*
X214130Y195583D01*
X214140Y195694D01*
X214154Y195804D01*
X214171Y195913D01*
X214193Y196022D01*
X214218Y196130D01*
X214248Y196236D01*
X214281Y196342D01*
X214318Y196447D01*
X214358Y196550D01*
X214403Y196651D01*
X214450Y196751D01*
X214502Y196850D01*
X214557Y196946D01*
X214615Y197040D01*
X214676Y197132D01*
X214741Y197222D01*
X214809Y197310D01*
X214880Y197395D01*
X214954Y197477D01*
X215031Y197557D01*
X215111Y197634D01*
X215193Y197708D01*
X215278Y197779D01*
X215366Y197847D01*
X215456Y197912D01*
X215548Y197973D01*
X215642Y198031D01*
X215738Y198086D01*
X215837Y198138D01*
X215937Y198185D01*
X216038Y198230D01*
X216141Y198270D01*
X216246Y198307D01*
X216352Y198340D01*
X216458Y198370D01*
X216566Y198395D01*
X216675Y198417D01*
X216784Y198434D01*
X216894Y198448D01*
X217005Y198458D01*
X217115Y198464D01*
X217226Y198466D01*
X217337Y198464D01*
X217447Y198458D01*
X217558Y198448D01*
X217668Y198434D01*
X217777Y198417D01*
X217886Y198395D01*
X217994Y198370D01*
X218100Y198340D01*
X218206Y198307D01*
X218311Y198270D01*
X218414Y198230D01*
X218515Y198185D01*
X218615Y198138D01*
X218714Y198086D01*
X218810Y198031D01*
X218904Y197973D01*
X218996Y197912D01*
X219086Y197847D01*
X219174Y197779D01*
X219259Y197708D01*
X219341Y197634D01*
X219421Y197557D01*
X219498Y197477D01*
X219572Y197395D01*
X219643Y197310D01*
X219711Y197222D01*
X219776Y197132D01*
X219837Y197040D01*
X219895Y196946D01*
X219950Y196850D01*
X220002Y196751D01*
X220049Y196651D01*
X220094Y196550D01*
X220134Y196447D01*
X220171Y196342D01*
X220204Y196236D01*
X220234Y196130D01*
X220259Y196022D01*
X220281Y195913D01*
X220298Y195804D01*
X220312Y195694D01*
X220322Y195583D01*
X220328Y195473D01*
X220330Y195362D01*
X220331Y195362D02*
X220331Y192257D01*
X220331Y195982D02*
X225298Y198466D01*
X222814Y203595D02*
X214122Y206079D01*
X222814Y203595D02*
X222814Y209804D01*
X220331Y207941D02*
X225298Y207941D01*
X104394Y231902D02*
X104394Y239522D01*
X104394Y231902D02*
X123444Y231902D01*
X124714Y230632D01*
X127254Y228092D01*
X129794Y230632D01*
X131064Y231902D01*
X124714Y192532D02*
X124714Y191262D01*
X104394Y191262D01*
X124714Y192532D02*
X129794Y192532D01*
X129794Y191262D01*
X150114Y191262D01*
X150114Y231902D02*
X131064Y231902D01*
X150114Y231902D02*
X150114Y239522D01*
X104394Y231902D02*
X104394Y198882D01*
X104394Y196342D02*
X104394Y191262D01*
X104394Y196342D02*
X108204Y196342D01*
X150114Y196342D02*
X150114Y191262D01*
X150114Y196342D02*
X146304Y196342D01*
X150114Y198882D02*
X150114Y231902D01*
X146304Y198882D02*
X146304Y196342D01*
X146304Y201422D02*
X133604Y201422D01*
X120904Y198882D02*
X120904Y196342D01*
X108204Y196342D02*
X108204Y198882D01*
X108204Y201422D02*
X120904Y201422D01*
X120904Y196342D02*
X133604Y196342D01*
X120904Y198882D02*
X120904Y201422D01*
X133604Y198882D02*
X133604Y196342D01*
X133604Y198882D02*
X133604Y201422D01*
X133604Y198882D02*
X129794Y198882D01*
X129794Y230632D01*
X124714Y198882D02*
X120904Y198882D01*
X124714Y198882D02*
X129794Y198882D01*
X124714Y198882D02*
X124714Y230632D01*
X146304Y198882D02*
X150114Y198882D01*
X146304Y198882D02*
X146304Y201422D01*
X150114Y198882D02*
X150114Y196342D01*
X108204Y198882D02*
X104394Y198882D01*
X108204Y198882D02*
X108204Y201422D01*
X104394Y198882D02*
X104394Y196342D01*
X104394Y239522D02*
X112014Y239522D01*
X112014Y240792D01*
X117094Y240792D02*
X117094Y239522D01*
X117094Y240792D02*
X112014Y240792D01*
X137414Y240792D02*
X137414Y239522D01*
X142494Y239522D02*
X150114Y239522D01*
X142494Y239522D02*
X142494Y240792D01*
X137414Y240792D01*
X129794Y239522D02*
X129794Y238252D01*
X129794Y239522D02*
X137414Y239522D01*
X129794Y238252D02*
X124714Y238252D01*
X124714Y239522D01*
X117094Y239522D01*
D13*
X110363Y226554D02*
X112282Y224155D01*
X110363Y226554D02*
X118999Y226554D01*
X118999Y224155D02*
X118999Y228953D01*
D11*
X77075Y236672D02*
X77073Y236574D01*
X77067Y236477D01*
X77058Y236380D01*
X77044Y236283D01*
X77027Y236187D01*
X77006Y236092D01*
X76982Y235998D01*
X76953Y235904D01*
X76921Y235812D01*
X76886Y235721D01*
X76847Y235632D01*
X76804Y235544D01*
X76758Y235458D01*
X76709Y235374D01*
X76656Y235292D01*
X76601Y235212D01*
X76542Y235134D01*
X76480Y235059D01*
X76415Y234986D01*
X76347Y234916D01*
X76277Y234848D01*
X76204Y234783D01*
X76129Y234721D01*
X76051Y234662D01*
X75971Y234607D01*
X75889Y234554D01*
X75805Y234505D01*
X75719Y234459D01*
X75631Y234416D01*
X75542Y234377D01*
X75451Y234342D01*
X75359Y234310D01*
X75265Y234281D01*
X75171Y234257D01*
X75076Y234236D01*
X74980Y234219D01*
X74883Y234205D01*
X74786Y234196D01*
X74688Y234190D01*
X74591Y234188D01*
X74448Y234190D01*
X74305Y234196D01*
X74163Y234205D01*
X74021Y234219D01*
X73879Y234237D01*
X73738Y234258D01*
X73597Y234283D01*
X73457Y234312D01*
X73318Y234345D01*
X73180Y234381D01*
X73043Y234422D01*
X72907Y234466D01*
X72772Y234513D01*
X72639Y234565D01*
X72507Y234620D01*
X72377Y234678D01*
X72248Y234740D01*
X72121Y234806D01*
X71996Y234875D01*
X71873Y234947D01*
X71752Y235023D01*
X71633Y235101D01*
X71516Y235184D01*
X71401Y235269D01*
X71289Y235357D01*
X71179Y235449D01*
X71072Y235543D01*
X70967Y235640D01*
X70865Y235740D01*
X71176Y242880D02*
X71178Y242978D01*
X71184Y243075D01*
X71193Y243172D01*
X71207Y243269D01*
X71224Y243365D01*
X71245Y243460D01*
X71269Y243554D01*
X71298Y243648D01*
X71330Y243740D01*
X71365Y243831D01*
X71404Y243920D01*
X71447Y244008D01*
X71493Y244094D01*
X71542Y244178D01*
X71595Y244260D01*
X71650Y244340D01*
X71709Y244418D01*
X71771Y244493D01*
X71836Y244566D01*
X71904Y244636D01*
X71974Y244704D01*
X72047Y244769D01*
X72122Y244831D01*
X72200Y244890D01*
X72280Y244945D01*
X72362Y244998D01*
X72446Y245047D01*
X72532Y245093D01*
X72620Y245136D01*
X72709Y245175D01*
X72800Y245210D01*
X72892Y245242D01*
X72986Y245271D01*
X73080Y245295D01*
X73175Y245316D01*
X73271Y245333D01*
X73368Y245347D01*
X73465Y245356D01*
X73562Y245362D01*
X73660Y245364D01*
X73790Y245362D01*
X73920Y245357D01*
X74050Y245348D01*
X74180Y245335D01*
X74309Y245319D01*
X74438Y245299D01*
X74566Y245275D01*
X74694Y245248D01*
X74820Y245217D01*
X74946Y245183D01*
X75071Y245145D01*
X75194Y245104D01*
X75317Y245059D01*
X75438Y245011D01*
X75558Y244960D01*
X75676Y244905D01*
X75792Y244847D01*
X75907Y244786D01*
X76021Y244721D01*
X76132Y244654D01*
X76241Y244583D01*
X76349Y244509D01*
X76454Y244433D01*
X72419Y240707D02*
X72336Y240758D01*
X72255Y240812D01*
X72177Y240869D01*
X72101Y240929D01*
X72027Y240992D01*
X71956Y241058D01*
X71887Y241126D01*
X71821Y241197D01*
X71757Y241270D01*
X71697Y241346D01*
X71640Y241424D01*
X71585Y241505D01*
X71534Y241587D01*
X71486Y241671D01*
X71441Y241757D01*
X71399Y241845D01*
X71361Y241934D01*
X71327Y242024D01*
X71295Y242116D01*
X71268Y242209D01*
X71244Y242303D01*
X71223Y242398D01*
X71207Y242494D01*
X71194Y242590D01*
X71184Y242686D01*
X71179Y242783D01*
X71177Y242880D01*
X75832Y238845D02*
X75915Y238794D01*
X75996Y238740D01*
X76074Y238683D01*
X76150Y238623D01*
X76224Y238560D01*
X76295Y238494D01*
X76364Y238426D01*
X76430Y238355D01*
X76494Y238282D01*
X76554Y238206D01*
X76611Y238128D01*
X76666Y238047D01*
X76717Y237965D01*
X76765Y237881D01*
X76810Y237795D01*
X76852Y237707D01*
X76890Y237618D01*
X76924Y237528D01*
X76956Y237436D01*
X76983Y237343D01*
X77007Y237249D01*
X77028Y237154D01*
X77044Y237058D01*
X77057Y236962D01*
X77067Y236866D01*
X77072Y236769D01*
X77074Y236672D01*
X75833Y238845D02*
X72418Y240707D01*
X82324Y245364D02*
X82324Y234188D01*
X87291Y234188D01*
X91821Y242880D02*
X94925Y245364D01*
X94925Y234188D01*
X91821Y234188D02*
X98030Y234188D01*
X231704Y81280D02*
X231704Y70104D01*
X228600Y81280D02*
X234809Y81280D01*
X239268Y78796D02*
X242372Y81280D01*
X242372Y70104D01*
X239268Y70104D02*
X245477Y70104D01*
X10978Y72136D02*
X10978Y83312D01*
X7874Y83312D02*
X14083Y83312D01*
X21957Y83312D02*
X22061Y83310D01*
X22166Y83304D01*
X22270Y83294D01*
X22373Y83281D01*
X22476Y83263D01*
X22579Y83242D01*
X22680Y83217D01*
X22781Y83188D01*
X22880Y83155D01*
X22978Y83119D01*
X23074Y83079D01*
X23169Y83035D01*
X23263Y82988D01*
X23354Y82938D01*
X23443Y82884D01*
X23531Y82827D01*
X23616Y82766D01*
X23699Y82702D01*
X23779Y82636D01*
X23857Y82566D01*
X23933Y82494D01*
X24005Y82418D01*
X24075Y82340D01*
X24141Y82260D01*
X24205Y82177D01*
X24266Y82092D01*
X24323Y82004D01*
X24377Y81915D01*
X24427Y81824D01*
X24474Y81730D01*
X24518Y81635D01*
X24558Y81539D01*
X24594Y81441D01*
X24627Y81342D01*
X24656Y81241D01*
X24681Y81140D01*
X24702Y81037D01*
X24720Y80934D01*
X24733Y80831D01*
X24743Y80727D01*
X24749Y80622D01*
X24751Y80518D01*
X21957Y83313D02*
X21838Y83311D01*
X21720Y83305D01*
X21601Y83295D01*
X21483Y83282D01*
X21366Y83264D01*
X21249Y83242D01*
X21133Y83217D01*
X21018Y83188D01*
X20903Y83155D01*
X20790Y83118D01*
X20679Y83078D01*
X20568Y83034D01*
X20460Y82986D01*
X20353Y82935D01*
X20247Y82880D01*
X20144Y82821D01*
X20042Y82760D01*
X19943Y82695D01*
X19845Y82626D01*
X19751Y82555D01*
X19658Y82480D01*
X19568Y82403D01*
X19481Y82322D01*
X19396Y82239D01*
X19314Y82153D01*
X19235Y82064D01*
X19159Y81973D01*
X19086Y81879D01*
X19017Y81783D01*
X18950Y81684D01*
X18887Y81584D01*
X18827Y81481D01*
X18770Y81377D01*
X18718Y81270D01*
X18668Y81162D01*
X18622Y81053D01*
X18580Y80941D01*
X18542Y80829D01*
X23820Y78345D02*
X23895Y78419D01*
X23967Y78496D01*
X24037Y78575D01*
X24104Y78657D01*
X24168Y78741D01*
X24229Y78827D01*
X24287Y78915D01*
X24342Y79006D01*
X24394Y79098D01*
X24442Y79192D01*
X24487Y79287D01*
X24529Y79385D01*
X24567Y79483D01*
X24602Y79583D01*
X24633Y79684D01*
X24660Y79786D01*
X24684Y79889D01*
X24705Y79992D01*
X24721Y80097D01*
X24734Y80202D01*
X24744Y80307D01*
X24749Y80412D01*
X24751Y80518D01*
X23820Y78345D02*
X18542Y72136D01*
X24751Y72136D01*
M02*
